<?xml version="1.0" encoding="UTF-8"?>
<svg xmlns="http://www.w3.org/2000/svg" xmlns:xlink="http://www.w3.org/1999/xlink" width="1101pt" height="640pt" viewBox="0 0 1101 640">
<defs>
<g>
<g id="glyph-0-0">
<path d="M 7.585938 -1.910156 L 7.585938 0 L 0.375 0 C 0.453125 -0.722656 0.6875 -1.40625 1.078125 -2.054688 C 1.46875 -2.699219 2.238281 -3.558594 3.390625 -4.628906 C 4.316406 -5.492188 4.886719 -6.078125 5.097656 -6.386719 C 5.378906 -6.808594 5.519531 -7.226562 5.523438 -7.648438 C 5.519531 -8.101562 5.394531 -8.453125 5.152344 -8.703125 C 4.902344 -8.945312 4.5625 -9.070312 4.132812 -9.074219 C 3.695312 -9.070312 3.355469 -8.941406 3.105469 -8.683594 C 2.851562 -8.425781 2.703125 -7.996094 2.664062 -7.398438 L 0.617188 -7.601562 C 0.734375 -8.730469 1.117188 -9.542969 1.761719 -10.039062 C 2.40625 -10.53125 3.214844 -10.78125 4.183594 -10.78125 C 5.242188 -10.78125 6.074219 -10.492188 6.679688 -9.921875 C 7.28125 -9.347656 7.582031 -8.640625 7.585938 -7.792969 C 7.582031 -7.308594 7.496094 -6.847656 7.324219 -6.410156 C 7.152344 -5.972656 6.878906 -5.515625 6.503906 -5.039062 C 6.253906 -4.71875 5.804688 -4.261719 5.15625 -3.667969 C 4.507812 -3.074219 4.09375 -2.679688 3.921875 -2.484375 C 3.746094 -2.289062 3.605469 -2.097656 3.5 -1.910156 Z M 7.585938 -1.910156 "/>
</g>
<g id="glyph-0-1">
<path d="M 4.117188 -10.78125 C 5.152344 -10.78125 5.964844 -10.410156 6.554688 -9.667969 C 7.25 -8.789062 7.597656 -7.332031 7.601562 -5.296875 C 7.597656 -3.265625 7.246094 -1.804688 6.546875 -0.914062 C 5.960938 -0.183594 5.152344 0.179688 4.117188 0.183594 C 3.066406 0.179688 2.222656 -0.21875 1.585938 -1.019531 C 0.945312 -1.824219 0.625 -3.253906 0.628906 -5.316406 C 0.625 -7.335938 0.976562 -8.792969 1.683594 -9.683594 C 2.261719 -10.414062 3.074219 -10.78125 4.117188 -10.78125 Z M 4.117188 -9.074219 C 3.863281 -9.070312 3.640625 -8.992188 3.449219 -8.835938 C 3.25 -8.675781 3.097656 -8.390625 2.996094 -7.984375 C 2.847656 -7.449219 2.777344 -6.554688 2.78125 -5.296875 C 2.777344 -4.035156 2.839844 -3.167969 2.972656 -2.699219 C 3.097656 -2.226562 3.257812 -1.914062 3.453125 -1.757812 C 3.640625 -1.601562 3.863281 -1.523438 4.117188 -1.523438 C 4.363281 -1.523438 4.585938 -1.601562 4.78125 -1.761719 C 4.976562 -1.917969 5.128906 -2.203125 5.238281 -2.613281 C 5.378906 -3.140625 5.449219 -4.035156 5.449219 -5.296875 C 5.449219 -6.554688 5.382812 -7.417969 5.257812 -7.890625 C 5.128906 -8.359375 4.96875 -8.675781 4.777344 -8.835938 C 4.582031 -8.992188 4.363281 -9.070312 4.117188 -9.074219 Z M 4.117188 -9.074219 "/>
</g>
<g id="glyph-0-2">
<path d="M 5.902344 0 L 3.84375 0 L 3.84375 -7.757812 C 3.09375 -7.054688 2.207031 -6.53125 1.1875 -6.195312 L 1.1875 -8.0625 C 1.722656 -8.238281 2.304688 -8.570312 2.9375 -9.0625 C 3.5625 -9.550781 3.996094 -10.125 4.234375 -10.78125 L 5.902344 -10.78125 Z M 5.902344 0 "/>
</g>
<g id="glyph-0-3">
<path d="M 0.667969 -2.761719 L 2.71875 -2.972656 C 2.773438 -2.503906 2.945312 -2.136719 3.234375 -1.871094 C 3.523438 -1.597656 3.855469 -1.464844 4.234375 -1.464844 C 4.660156 -1.464844 5.023438 -1.636719 5.324219 -1.988281 C 5.621094 -2.332031 5.769531 -2.859375 5.773438 -3.566406 C 5.769531 -4.222656 5.621094 -4.714844 5.328125 -5.046875 C 5.03125 -5.375 4.648438 -5.542969 4.175781 -5.542969 C 3.582031 -5.542969 3.050781 -5.28125 2.585938 -4.761719 L 0.914062 -5.003906 L 1.96875 -10.589844 L 7.414062 -10.589844 L 7.414062 -8.664062 L 3.53125 -8.664062 L 3.207031 -6.839844 C 3.664062 -7.066406 4.132812 -7.183594 4.613281 -7.183594 C 5.523438 -7.183594 6.296875 -6.851562 6.933594 -6.1875 C 7.566406 -5.523438 7.886719 -4.660156 7.886719 -3.601562 C 7.886719 -2.714844 7.628906 -1.925781 7.117188 -1.238281 C 6.417969 -0.289062 5.449219 0.179688 4.210938 0.183594 C 3.21875 0.179688 2.410156 -0.0820312 1.789062 -0.613281 C 1.160156 -1.144531 0.789062 -1.859375 0.667969 -2.761719 Z M 0.667969 -2.761719 "/>
</g>
<g id="glyph-0-4">
<path d="M 0.5625 -2.847656 L 2.554688 -3.089844 C 2.617188 -2.578125 2.785156 -2.191406 3.066406 -1.925781 C 3.339844 -1.65625 3.679688 -1.523438 4.078125 -1.523438 C 4.503906 -1.523438 4.859375 -1.683594 5.152344 -2.007812 C 5.441406 -2.328125 5.589844 -2.761719 5.589844 -3.3125 C 5.589844 -3.824219 5.449219 -4.234375 5.171875 -4.539062 C 4.890625 -4.839844 4.550781 -4.992188 4.152344 -4.996094 C 3.886719 -4.992188 3.570312 -4.941406 3.207031 -4.839844 L 3.433594 -6.519531 C 3.988281 -6.5 4.410156 -6.621094 4.707031 -6.878906 C 4.996094 -7.136719 5.144531 -7.476562 5.148438 -7.902344 C 5.144531 -8.261719 5.035156 -8.550781 4.824219 -8.765625 C 4.605469 -8.980469 4.320312 -9.085938 3.96875 -9.089844 C 3.613281 -9.085938 3.3125 -8.964844 3.066406 -8.722656 C 2.816406 -8.476562 2.667969 -8.121094 2.613281 -7.652344 L 0.71875 -7.976562 C 0.847656 -8.621094 1.046875 -9.140625 1.3125 -9.53125 C 1.578125 -9.917969 1.949219 -10.222656 2.425781 -10.445312 C 2.902344 -10.667969 3.433594 -10.78125 4.027344 -10.78125 C 5.035156 -10.78125 5.847656 -10.457031 6.460938 -9.8125 C 6.960938 -9.285156 7.210938 -8.691406 7.214844 -8.027344 C 7.210938 -7.082031 6.695312 -6.328125 5.667969 -5.773438 C 6.28125 -5.636719 6.773438 -5.339844 7.144531 -4.882812 C 7.511719 -4.421875 7.699219 -3.871094 7.699219 -3.222656 C 7.699219 -2.277344 7.351562 -1.472656 6.664062 -0.8125 C 5.972656 -0.148438 5.117188 0.179688 4.09375 0.183594 C 3.121094 0.179688 2.316406 -0.09375 1.675781 -0.652344 C 1.035156 -1.207031 0.664062 -1.941406 0.5625 -2.847656 Z M 0.5625 -2.847656 "/>
</g>
<g id="glyph-0-5">
<path d="M 0.652344 -8.085938 C 0.648438 -9.046875 0.859375 -9.757812 1.285156 -10.222656 C 1.703125 -10.6875 2.277344 -10.921875 3.003906 -10.921875 C 3.75 -10.921875 4.335938 -10.6875 4.757812 -10.226562 C 5.179688 -9.761719 5.390625 -9.050781 5.390625 -8.085938 C 5.390625 -7.125 5.179688 -6.410156 4.757812 -5.945312 C 4.335938 -5.480469 3.761719 -5.25 3.039062 -5.25 C 2.289062 -5.25 1.703125 -5.480469 1.285156 -5.941406 C 0.859375 -6.402344 0.648438 -7.117188 0.652344 -8.085938 Z M 2.257812 -8.101562 C 2.253906 -7.402344 2.335938 -6.933594 2.496094 -6.695312 C 2.617188 -6.515625 2.785156 -6.425781 3.003906 -6.429688 C 3.21875 -6.425781 3.390625 -6.515625 3.515625 -6.695312 C 3.671875 -6.933594 3.75 -7.402344 3.75 -8.101562 C 3.75 -8.796875 3.671875 -9.261719 3.515625 -9.5 C 3.390625 -9.675781 3.21875 -9.765625 3.003906 -9.769531 C 2.785156 -9.765625 2.617188 -9.679688 2.496094 -9.507812 C 2.335938 -9.265625 2.253906 -8.796875 2.257812 -8.101562 Z M 4.570312 0.410156 L 3.046875 0.410156 L 8.765625 -10.921875 L 10.246094 -10.921875 Z M 7.894531 -2.410156 C 7.890625 -3.367188 8.101562 -4.082031 8.527344 -4.546875 C 8.949219 -5.007812 9.527344 -5.238281 10.261719 -5.242188 C 10.996094 -5.238281 11.578125 -5.007812 12 -4.546875 C 12.421875 -4.082031 12.632812 -3.367188 12.632812 -2.410156 C 12.632812 -1.441406 12.421875 -0.726562 12 -0.261719 C 11.578125 0.203125 11.003906 0.433594 10.28125 0.433594 C 9.535156 0.433594 8.949219 0.203125 8.527344 -0.261719 C 8.101562 -0.726562 7.890625 -1.441406 7.894531 -2.410156 Z M 9.5 -2.417969 C 9.496094 -1.71875 9.578125 -1.253906 9.742188 -1.019531 C 9.863281 -0.835938 10.03125 -0.742188 10.246094 -0.746094 C 10.464844 -0.742188 10.632812 -0.832031 10.75 -1.011719 C 10.910156 -1.25 10.992188 -1.71875 10.992188 -2.417969 C 10.992188 -3.113281 10.914062 -3.582031 10.757812 -3.824219 C 10.636719 -3.996094 10.464844 -4.082031 10.246094 -4.085938 C 10.023438 -4.082031 9.855469 -3.996094 9.742188 -3.824219 C 9.578125 -3.582031 9.496094 -3.113281 9.5 -2.417969 Z M 9.5 -2.417969 "/>
</g>
<g id="glyph-0-6">
<path d="M 4.671875 0 L 4.671875 -2.160156 L 0.277344 -2.160156 L 0.277344 -3.960938 L 4.9375 -10.78125 L 6.664062 -10.78125 L 6.664062 -3.96875 L 8 -3.96875 L 8 -2.160156 L 6.664062 -2.160156 L 6.664062 0 Z M 4.671875 -3.96875 L 4.671875 -7.640625 L 2.203125 -3.96875 Z M 4.671875 -3.96875 "/>
</g>
<g id="glyph-0-7">
<path d="M 7.609375 -8.109375 L 5.617188 -7.886719 C 5.566406 -8.296875 5.4375 -8.597656 5.234375 -8.796875 C 5.027344 -8.988281 4.761719 -9.085938 4.4375 -9.089844 C 4 -9.085938 3.632812 -8.890625 3.335938 -8.503906 C 3.03125 -8.109375 2.84375 -7.296875 2.769531 -6.0625 C 3.28125 -6.667969 3.917969 -6.972656 4.679688 -6.972656 C 5.535156 -6.972656 6.269531 -6.644531 6.886719 -5.988281 C 7.496094 -5.332031 7.804688 -4.488281 7.808594 -3.457031 C 7.804688 -2.355469 7.480469 -1.472656 6.839844 -0.8125 C 6.191406 -0.148438 5.367188 0.179688 4.359375 0.183594 C 3.273438 0.179688 2.378906 -0.238281 1.683594 -1.078125 C 0.980469 -1.921875 0.632812 -3.300781 0.636719 -5.222656 C 0.632812 -7.183594 0.996094 -8.601562 1.726562 -9.476562 C 2.453125 -10.34375 3.398438 -10.78125 4.5625 -10.78125 C 5.375 -10.78125 6.050781 -10.550781 6.585938 -10.09375 C 7.121094 -9.636719 7.460938 -8.976562 7.609375 -8.109375 Z M 2.945312 -3.617188 C 2.941406 -2.945312 3.09375 -2.429688 3.40625 -2.066406 C 3.710938 -1.703125 4.0625 -1.523438 4.460938 -1.523438 C 4.835938 -1.523438 5.152344 -1.671875 5.410156 -1.96875 C 5.660156 -2.265625 5.789062 -2.753906 5.792969 -3.433594 C 5.789062 -4.132812 5.652344 -4.644531 5.382812 -4.96875 C 5.105469 -5.292969 4.765625 -5.453125 4.359375 -5.457031 C 3.960938 -5.453125 3.625 -5.300781 3.355469 -4.992188 C 3.078125 -4.679688 2.941406 -4.21875 2.945312 -3.617188 Z M 2.945312 -3.617188 "/>
</g>
<g id="glyph-0-8">
<path d="M 2.402344 -5.792969 C 1.871094 -6.015625 1.484375 -6.324219 1.242188 -6.71875 C 1 -7.109375 0.878906 -7.539062 0.878906 -8.011719 C 0.878906 -8.808594 1.15625 -9.472656 1.714844 -9.996094 C 2.273438 -10.519531 3.070312 -10.78125 4.101562 -10.78125 C 5.121094 -10.78125 5.910156 -10.519531 6.476562 -9.996094 C 7.039062 -9.472656 7.324219 -8.808594 7.324219 -8.011719 C 7.324219 -7.511719 7.191406 -7.070312 6.933594 -6.683594 C 6.671875 -6.292969 6.308594 -5.996094 5.84375 -5.792969 C 6.4375 -5.550781 6.890625 -5.203125 7.203125 -4.746094 C 7.507812 -4.285156 7.664062 -3.753906 7.667969 -3.15625 C 7.664062 -2.164062 7.347656 -1.359375 6.71875 -0.738281 C 6.085938 -0.121094 5.246094 0.1875 4.195312 0.191406 C 3.21875 0.1875 2.40625 -0.0664062 1.757812 -0.578125 C 0.992188 -1.183594 0.609375 -2.015625 0.609375 -3.070312 C 0.609375 -3.648438 0.75 -4.179688 1.039062 -4.667969 C 1.324219 -5.152344 1.78125 -5.527344 2.402344 -5.792969 Z M 2.828125 -7.867188 C 2.824219 -7.453125 2.941406 -7.132812 3.175781 -6.90625 C 3.40625 -6.675781 3.714844 -6.5625 4.101562 -6.5625 C 4.492188 -6.5625 4.804688 -6.675781 5.039062 -6.910156 C 5.273438 -7.136719 5.390625 -7.460938 5.390625 -7.875 C 5.390625 -8.257812 5.273438 -8.566406 5.042969 -8.800781 C 4.808594 -9.03125 4.503906 -9.144531 4.125 -9.148438 C 3.726562 -9.144531 3.410156 -9.027344 3.179688 -8.796875 C 2.941406 -8.558594 2.824219 -8.25 2.828125 -7.867188 Z M 2.636719 -3.265625 C 2.636719 -2.695312 2.78125 -2.253906 3.070312 -1.941406 C 3.359375 -1.621094 3.722656 -1.464844 4.160156 -1.464844 C 4.582031 -1.464844 4.933594 -1.617188 5.214844 -1.921875 C 5.492188 -2.226562 5.628906 -2.667969 5.632812 -3.246094 C 5.628906 -3.746094 5.488281 -4.148438 5.207031 -4.457031 C 4.921875 -4.757812 4.5625 -4.910156 4.132812 -4.914062 C 3.625 -4.910156 3.25 -4.738281 3.003906 -4.394531 C 2.757812 -4.046875 2.636719 -3.667969 2.636719 -3.265625 Z M 2.636719 -3.265625 "/>
</g>
<g id="glyph-1-0">
<path d="M 0.847656 0 L 0.847656 -7.386719 L 5.832031 -7.386719 L 5.832031 -6.515625 L 1.824219 -6.515625 L 1.824219 -4.226562 L 5.289062 -4.226562 L 5.289062 -3.355469 L 1.824219 -3.355469 L 1.824219 0 Z M 0.847656 0 "/>
</g>
<g id="glyph-1-1">
<path d="M 0.34375 -2.675781 C 0.339844 -3.664062 0.613281 -4.398438 1.167969 -4.878906 C 1.625 -5.273438 2.1875 -5.472656 2.851562 -5.472656 C 3.585938 -5.472656 4.1875 -5.230469 4.65625 -4.75 C 5.121094 -4.265625 5.355469 -3.597656 5.355469 -2.75 C 5.355469 -2.058594 5.25 -1.519531 5.046875 -1.125 C 4.835938 -0.730469 4.535156 -0.421875 4.144531 -0.207031 C 3.746094 0.0117188 3.316406 0.117188 2.851562 0.121094 C 2.097656 0.117188 1.492188 -0.121094 1.035156 -0.597656 C 0.570312 -1.078125 0.339844 -1.769531 0.34375 -2.675781 Z M 1.273438 -2.675781 C 1.269531 -1.988281 1.421875 -1.476562 1.722656 -1.136719 C 2.019531 -0.792969 2.394531 -0.621094 2.851562 -0.625 C 3.300781 -0.621094 3.675781 -0.792969 3.976562 -1.136719 C 4.273438 -1.480469 4.421875 -2.003906 4.425781 -2.707031 C 4.421875 -3.367188 4.273438 -3.867188 3.972656 -4.210938 C 3.671875 -4.550781 3.296875 -4.722656 2.851562 -4.722656 C 2.394531 -4.722656 2.019531 -4.550781 1.722656 -4.210938 C 1.421875 -3.871094 1.269531 -3.359375 1.273438 -2.675781 Z M 1.273438 -2.675781 "/>
</g>
<g id="glyph-1-2">
<path d="M 4.152344 0 L 4.152344 -0.675781 C 3.8125 -0.144531 3.3125 0.117188 2.65625 0.121094 C 2.226562 0.117188 1.835938 0.00390625 1.476562 -0.230469 C 1.117188 -0.464844 0.839844 -0.792969 0.644531 -1.214844 C 0.449219 -1.632812 0.351562 -2.121094 0.351562 -2.671875 C 0.351562 -3.203125 0.4375 -3.6875 0.617188 -4.125 C 0.792969 -4.558594 1.0625 -4.890625 1.421875 -5.125 C 1.777344 -5.355469 2.175781 -5.472656 2.617188 -5.472656 C 2.933594 -5.472656 3.21875 -5.402344 3.476562 -5.265625 C 3.726562 -5.128906 3.933594 -4.953125 4.089844 -4.738281 L 4.089844 -7.386719 L 4.992188 -7.386719 L 4.992188 0 Z M 1.285156 -2.671875 C 1.28125 -1.984375 1.425781 -1.46875 1.71875 -1.132812 C 2.003906 -0.789062 2.347656 -0.621094 2.742188 -0.625 C 3.136719 -0.621094 3.472656 -0.78125 3.75 -1.109375 C 4.027344 -1.429688 4.164062 -1.925781 4.167969 -2.59375 C 4.164062 -3.324219 4.023438 -3.863281 3.742188 -4.207031 C 3.457031 -4.550781 3.109375 -4.722656 2.699219 -4.722656 C 2.296875 -4.722656 1.960938 -4.554688 1.691406 -4.226562 C 1.417969 -3.894531 1.28125 -3.378906 1.285156 -2.671875 Z M 1.285156 -2.671875 "/>
</g>
<g id="glyph-1-3">
<path d="M 0.917969 0 L 0.917969 -1.03125 L 1.949219 -1.03125 L 1.949219 0 C 1.945312 0.378906 1.878906 0.683594 1.746094 0.917969 C 1.613281 1.148438 1.398438 1.328125 1.109375 1.460938 L 0.855469 1.074219 C 1.046875 0.988281 1.1875 0.867188 1.277344 0.703125 C 1.367188 0.539062 1.417969 0.304688 1.429688 0 Z M 0.917969 0 "/>
</g>
<g id="glyph-1-4">
</g>
<g id="glyph-1-5">
<path d="M 1.515625 0 L 0.675781 0 L 0.675781 -7.386719 L 1.582031 -7.386719 L 1.582031 -4.75 C 1.964844 -5.230469 2.453125 -5.472656 3.046875 -5.472656 C 3.375 -5.472656 3.6875 -5.40625 3.984375 -5.273438 C 4.277344 -5.140625 4.515625 -4.953125 4.707031 -4.714844 C 4.894531 -4.472656 5.042969 -4.183594 5.152344 -3.84375 C 5.257812 -3.503906 5.3125 -3.140625 5.316406 -2.757812 C 5.3125 -1.835938 5.085938 -1.125 4.636719 -0.628906 C 4.179688 -0.128906 3.636719 0.117188 3.003906 0.121094 C 2.367188 0.117188 1.871094 -0.144531 1.515625 -0.671875 Z M 1.507812 -2.714844 C 1.503906 -2.070312 1.59375 -1.609375 1.769531 -1.324219 C 2.050781 -0.855469 2.433594 -0.621094 2.925781 -0.625 C 3.320312 -0.621094 3.664062 -0.792969 3.957031 -1.140625 C 4.242188 -1.480469 4.386719 -1.992188 4.390625 -2.679688 C 4.386719 -3.375 4.25 -3.890625 3.972656 -4.226562 C 3.695312 -4.554688 3.359375 -4.722656 2.96875 -4.726562 C 2.570312 -4.722656 2.226562 -4.550781 1.941406 -4.210938 C 1.648438 -3.863281 1.503906 -3.363281 1.507812 -2.714844 Z M 1.507812 -2.714844 "/>
</g>
<g id="glyph-1-6">
<path d="M 4.34375 -1.722656 L 5.28125 -1.609375 C 5.128906 -1.058594 4.855469 -0.632812 4.457031 -0.332031 C 4.054688 -0.03125 3.542969 0.117188 2.925781 0.121094 C 2.140625 0.117188 1.523438 -0.121094 1.066406 -0.601562 C 0.605469 -1.082031 0.375 -1.757812 0.378906 -2.628906 C 0.375 -3.527344 0.605469 -4.226562 1.074219 -4.726562 C 1.535156 -5.222656 2.136719 -5.472656 2.878906 -5.472656 C 3.589844 -5.472656 4.175781 -5.226562 4.628906 -4.742188 C 5.082031 -4.25 5.308594 -3.566406 5.3125 -2.6875 C 5.308594 -2.628906 5.304688 -2.546875 5.304688 -2.445312 L 1.316406 -2.445312 C 1.347656 -1.851562 1.511719 -1.402344 1.8125 -1.09375 C 2.109375 -0.777344 2.484375 -0.621094 2.933594 -0.625 C 3.261719 -0.621094 3.542969 -0.707031 3.78125 -0.886719 C 4.015625 -1.058594 4.203125 -1.339844 4.34375 -1.722656 Z M 1.367188 -3.191406 L 4.355469 -3.191406 C 4.308594 -3.636719 4.195312 -3.972656 4.011719 -4.203125 C 3.71875 -4.546875 3.34375 -4.722656 2.886719 -4.726562 C 2.46875 -4.722656 2.117188 -4.582031 1.835938 -4.308594 C 1.546875 -4.027344 1.390625 -3.65625 1.367188 -3.191406 Z M 1.367188 -3.191406 "/>
</g>
<g id="glyph-1-7">
<path d="M 2.167969 0 L 0.132812 -5.351562 L 1.089844 -5.351562 L 2.238281 -2.148438 C 2.359375 -1.800781 2.472656 -1.441406 2.578125 -1.066406 C 2.65625 -1.347656 2.769531 -1.6875 2.917969 -2.085938 L 4.105469 -5.351562 L 5.039062 -5.351562 L 3.011719 0 Z M 2.167969 0 "/>
</g>
<g id="glyph-1-8">
<path d="M 0.671875 0 L 0.671875 -5.351562 L 1.488281 -5.351562 L 1.488281 -4.539062 C 1.695312 -4.917969 1.886719 -5.167969 2.0625 -5.289062 C 2.238281 -5.410156 2.429688 -5.472656 2.644531 -5.472656 C 2.949219 -5.472656 3.261719 -5.375 3.578125 -5.179688 L 3.265625 -4.339844 C 3.039062 -4.46875 2.820312 -4.535156 2.601562 -4.535156 C 2.402344 -4.535156 2.222656 -4.472656 2.066406 -4.355469 C 1.90625 -4.230469 1.792969 -4.066406 1.726562 -3.859375 C 1.625 -3.535156 1.574219 -3.183594 1.578125 -2.800781 L 1.578125 0 Z M 0.671875 0 "/>
</g>
<g id="glyph-1-9">
<path d="M 4.171875 -0.660156 C 3.835938 -0.371094 3.511719 -0.167969 3.199219 -0.0546875 C 2.886719 0.0625 2.554688 0.117188 2.203125 0.121094 C 1.613281 0.117188 1.160156 -0.0234375 0.84375 -0.308594 C 0.527344 -0.59375 0.367188 -0.960938 0.371094 -1.410156 C 0.367188 -1.671875 0.429688 -1.910156 0.550781 -2.128906 C 0.667969 -2.339844 0.824219 -2.515625 1.019531 -2.648438 C 1.210938 -2.78125 1.425781 -2.878906 1.671875 -2.949219 C 1.847656 -2.992188 2.117188 -3.039062 2.480469 -3.082031 C 3.207031 -3.167969 3.746094 -3.269531 4.097656 -3.394531 C 4.097656 -3.515625 4.101562 -3.597656 4.101562 -3.632812 C 4.101562 -4 4.015625 -4.257812 3.84375 -4.414062 C 3.609375 -4.617188 3.265625 -4.722656 2.8125 -4.722656 C 2.382812 -4.722656 2.066406 -4.644531 1.867188 -4.496094 C 1.660156 -4.34375 1.507812 -4.082031 1.414062 -3.703125 L 0.527344 -3.824219 C 0.605469 -4.203125 0.738281 -4.507812 0.925781 -4.742188 C 1.109375 -4.972656 1.375 -5.152344 1.726562 -5.28125 C 2.074219 -5.40625 2.480469 -5.472656 2.941406 -5.472656 C 3.398438 -5.472656 3.769531 -5.417969 4.054688 -5.308594 C 4.339844 -5.199219 4.546875 -5.0625 4.683594 -4.902344 C 4.816406 -4.738281 4.914062 -4.535156 4.96875 -4.289062 C 5 -4.132812 5.015625 -3.851562 5.015625 -3.453125 L 5.015625 -2.242188 C 5.015625 -1.394531 5.03125 -0.859375 5.070312 -0.640625 C 5.105469 -0.414062 5.183594 -0.203125 5.300781 0 L 4.355469 0 C 4.253906 -0.1875 4.195312 -0.40625 4.171875 -0.660156 Z M 4.097656 -2.6875 C 3.761719 -2.550781 3.269531 -2.4375 2.617188 -2.34375 C 2.238281 -2.289062 1.972656 -2.226562 1.824219 -2.160156 C 1.667969 -2.09375 1.550781 -1.996094 1.464844 -1.867188 C 1.378906 -1.734375 1.335938 -1.589844 1.339844 -1.4375 C 1.335938 -1.191406 1.425781 -0.992188 1.613281 -0.832031 C 1.792969 -0.667969 2.0625 -0.585938 2.417969 -0.589844 C 2.765625 -0.585938 3.074219 -0.660156 3.347656 -0.816406 C 3.617188 -0.964844 3.820312 -1.175781 3.949219 -1.445312 C 4.046875 -1.648438 4.09375 -1.949219 4.097656 -2.351562 Z M 4.097656 -2.6875 "/>
</g>
<g id="glyph-1-10">
<path d="M 0.515625 0.445312 L 1.394531 0.574219 C 1.433594 0.847656 1.535156 1.042969 1.703125 1.167969 C 1.925781 1.332031 2.234375 1.417969 2.625 1.421875 C 3.042969 1.417969 3.367188 1.332031 3.597656 1.167969 C 3.824219 0.996094 3.976562 0.761719 4.0625 0.464844 C 4.105469 0.277344 4.128906 -0.105469 4.128906 -0.699219 C 3.726562 -0.230469 3.230469 0 2.644531 0 C 1.90625 0 1.339844 -0.265625 0.9375 -0.796875 C 0.53125 -1.328125 0.328125 -1.964844 0.332031 -2.707031 C 0.328125 -3.214844 0.421875 -3.683594 0.609375 -4.117188 C 0.792969 -4.546875 1.058594 -4.878906 1.414062 -5.117188 C 1.761719 -5.351562 2.175781 -5.472656 2.652344 -5.472656 C 3.28125 -5.472656 3.800781 -5.214844 4.210938 -4.707031 L 4.210938 -5.351562 L 5.050781 -5.351562 L 5.050781 -0.726562 C 5.050781 0.105469 4.964844 0.695312 4.792969 1.042969 C 4.621094 1.390625 4.351562 1.664062 3.988281 1.867188 C 3.617188 2.066406 3.164062 2.167969 2.628906 2.171875 C 1.988281 2.167969 1.472656 2.023438 1.082031 1.738281 C 0.6875 1.449219 0.5 1.019531 0.515625 0.445312 Z M 1.265625 -2.773438 C 1.265625 -2.066406 1.402344 -1.554688 1.683594 -1.234375 C 1.957031 -0.910156 2.308594 -0.75 2.730469 -0.75 C 3.144531 -0.75 3.492188 -0.910156 3.777344 -1.230469 C 4.058594 -1.550781 4.199219 -2.054688 4.203125 -2.742188 C 4.199219 -3.394531 4.054688 -3.886719 3.765625 -4.222656 C 3.472656 -4.554688 3.121094 -4.722656 2.714844 -4.722656 C 2.308594 -4.722656 1.96875 -4.558594 1.6875 -4.230469 C 1.40625 -3.902344 1.265625 -3.414062 1.265625 -2.773438 Z M 1.265625 -2.773438 "/>
</g>
<g id="glyph-1-11">
<path d="M 0.316406 -1.597656 L 1.214844 -1.738281 C 1.261719 -1.375 1.402344 -1.097656 1.632812 -0.910156 C 1.863281 -0.714844 2.1875 -0.621094 2.601562 -0.625 C 3.015625 -0.621094 3.324219 -0.707031 3.527344 -0.878906 C 3.726562 -1.046875 3.824219 -1.246094 3.828125 -1.476562 C 3.824219 -1.679688 3.738281 -1.839844 3.5625 -1.960938 C 3.4375 -2.039062 3.128906 -2.140625 2.636719 -2.265625 C 1.96875 -2.433594 1.503906 -2.578125 1.25 -2.703125 C 0.992188 -2.820312 0.800781 -2.992188 0.667969 -3.210938 C 0.535156 -3.429688 0.46875 -3.667969 0.46875 -3.929688 C 0.46875 -4.167969 0.523438 -4.390625 0.632812 -4.59375 C 0.742188 -4.796875 0.890625 -4.964844 1.078125 -5.097656 C 1.21875 -5.199219 1.410156 -5.285156 1.652344 -5.363281 C 1.894531 -5.433594 2.15625 -5.472656 2.4375 -5.472656 C 2.859375 -5.472656 3.226562 -5.410156 3.542969 -5.289062 C 3.859375 -5.167969 4.09375 -5.003906 4.246094 -4.796875 C 4.398438 -4.589844 4.503906 -4.316406 4.558594 -3.972656 L 3.671875 -3.851562 C 3.628906 -4.121094 3.511719 -4.335938 3.324219 -4.492188 C 3.128906 -4.644531 2.855469 -4.722656 2.503906 -4.726562 C 2.082031 -4.722656 1.785156 -4.652344 1.609375 -4.519531 C 1.429688 -4.378906 1.339844 -4.21875 1.34375 -4.035156 C 1.339844 -3.914062 1.378906 -3.808594 1.457031 -3.71875 C 1.527344 -3.621094 1.644531 -3.539062 1.804688 -3.476562 C 1.894531 -3.4375 2.160156 -3.363281 2.605469 -3.246094 C 3.242188 -3.074219 3.6875 -2.933594 3.945312 -2.824219 C 4.195312 -2.714844 4.394531 -2.554688 4.542969 -2.347656 C 4.683594 -2.136719 4.757812 -1.878906 4.761719 -1.570312 C 4.757812 -1.265625 4.667969 -0.980469 4.496094 -0.714844 C 4.316406 -0.449219 4.0625 -0.242188 3.734375 -0.0976562 C 3.398438 0.046875 3.023438 0.117188 2.605469 0.121094 C 1.90625 0.117188 1.375 -0.0234375 1.015625 -0.3125 C 0.648438 -0.597656 0.417969 -1.027344 0.316406 -1.597656 Z M 0.316406 -1.597656 "/>
</g>
<g id="glyph-1-12">
<path d="M 4.902344 -0.871094 C 4.601562 -0.535156 4.273438 -0.285156 3.921875 -0.121094 C 3.566406 0.0429688 3.1875 0.121094 2.78125 0.125 C 2.023438 0.121094 1.425781 -0.128906 0.984375 -0.640625 C 0.625 -1.054688 0.445312 -1.519531 0.445312 -2.035156 C 0.445312 -2.488281 0.589844 -2.902344 0.882812 -3.273438 C 1.175781 -3.636719 1.617188 -3.960938 2.203125 -4.242188 C 1.867188 -4.625 1.644531 -4.933594 1.535156 -5.171875 C 1.425781 -5.410156 1.371094 -5.640625 1.371094 -5.867188 C 1.371094 -6.304688 1.542969 -6.691406 1.890625 -7.019531 C 2.238281 -7.347656 2.675781 -7.511719 3.203125 -7.511719 C 3.707031 -7.511719 4.121094 -7.355469 4.441406 -7.046875 C 4.761719 -6.738281 4.921875 -6.367188 4.921875 -5.9375 C 4.921875 -5.230469 4.457031 -4.632812 3.527344 -4.136719 L 4.851562 -2.449219 C 5 -2.742188 5.117188 -3.082031 5.207031 -3.476562 L 6.148438 -3.273438 C 5.984375 -2.628906 5.765625 -2.097656 5.492188 -1.683594 C 5.828125 -1.230469 6.214844 -0.855469 6.648438 -0.550781 L 6.035156 0.171875 C 5.667969 -0.0625 5.289062 -0.40625 4.902344 -0.871094 Z M 3.058594 -4.722656 C 3.449219 -4.953125 3.703125 -5.15625 3.820312 -5.332031 C 3.9375 -5.503906 3.996094 -5.695312 3.996094 -5.910156 C 3.996094 -6.160156 3.914062 -6.367188 3.753906 -6.527344 C 3.59375 -6.683594 3.394531 -6.761719 3.160156 -6.765625 C 2.910156 -6.761719 2.707031 -6.683594 2.546875 -6.527344 C 2.382812 -6.371094 2.300781 -6.175781 2.304688 -5.949219 C 2.300781 -5.832031 2.332031 -5.714844 2.390625 -5.589844 C 2.449219 -5.464844 2.535156 -5.332031 2.65625 -5.191406 Z M 4.332031 -1.585938 L 2.671875 -3.648438 C 2.179688 -3.355469 1.847656 -3.085938 1.675781 -2.835938 C 1.503906 -2.585938 1.417969 -2.335938 1.421875 -2.089844 C 1.417969 -1.789062 1.535156 -1.480469 1.777344 -1.160156 C 2.011719 -0.835938 2.351562 -0.671875 2.792969 -0.675781 C 3.0625 -0.671875 3.34375 -0.757812 3.632812 -0.929688 C 3.921875 -1.097656 4.152344 -1.316406 4.332031 -1.585938 Z M 4.332031 -1.585938 "/>
</g>
<g id="glyph-1-13">
<path d="M 2.660156 -0.8125 L 2.792969 -0.0117188 C 2.535156 0.0429688 2.304688 0.0703125 2.105469 0.0703125 C 1.773438 0.0703125 1.519531 0.0195312 1.339844 -0.0859375 C 1.15625 -0.1875 1.027344 -0.324219 0.957031 -0.496094 C 0.878906 -0.664062 0.84375 -1.019531 0.847656 -1.566406 L 0.847656 -4.644531 L 0.179688 -4.644531 L 0.179688 -5.351562 L 0.847656 -5.351562 L 0.847656 -6.675781 L 1.75 -7.222656 L 1.75 -5.351562 L 2.660156 -5.351562 L 2.660156 -4.644531 L 1.75 -4.644531 L 1.75 -1.515625 C 1.746094 -1.253906 1.761719 -1.085938 1.796875 -1.015625 C 1.824219 -0.9375 1.875 -0.878906 1.953125 -0.839844 C 2.023438 -0.792969 2.128906 -0.773438 2.261719 -0.777344 C 2.363281 -0.773438 2.496094 -0.785156 2.660156 -0.8125 Z M 2.660156 -0.8125 "/>
</g>
<g id="glyph-1-14">
<path d="M 4.171875 -1.960938 L 5.0625 -1.84375 C 4.964844 -1.226562 4.714844 -0.746094 4.316406 -0.398438 C 3.914062 -0.0546875 3.421875 0.117188 2.835938 0.121094 C 2.101562 0.117188 1.511719 -0.121094 1.070312 -0.597656 C 0.621094 -1.074219 0.398438 -1.757812 0.402344 -2.65625 C 0.398438 -3.230469 0.492188 -3.738281 0.6875 -4.171875 C 0.875 -4.605469 1.167969 -4.929688 1.5625 -5.148438 C 1.953125 -5.363281 2.378906 -5.472656 2.84375 -5.472656 C 3.421875 -5.472656 3.898438 -5.324219 4.269531 -5.03125 C 4.636719 -4.734375 4.875 -4.316406 4.980469 -3.78125 L 4.097656 -3.644531 C 4.011719 -4.003906 3.863281 -4.273438 3.652344 -4.453125 C 3.433594 -4.632812 3.175781 -4.722656 2.878906 -4.726562 C 2.417969 -4.722656 2.046875 -4.558594 1.761719 -4.234375 C 1.476562 -3.902344 1.335938 -3.382812 1.335938 -2.679688 C 1.335938 -1.957031 1.472656 -1.4375 1.746094 -1.113281 C 2.019531 -0.785156 2.378906 -0.621094 2.828125 -0.625 C 3.179688 -0.621094 3.476562 -0.730469 3.71875 -0.953125 C 3.957031 -1.167969 4.109375 -1.503906 4.171875 -1.960938 Z M 4.171875 -1.960938 "/>
</g>
<g id="glyph-1-15">
<path d="M 2.675781 0 L 2.675781 -6.515625 L 0.242188 -6.515625 L 0.242188 -7.386719 L 6.097656 -7.386719 L 6.097656 -6.515625 L 3.652344 -6.515625 L 3.652344 0 Z M 2.675781 0 "/>
</g>
<g id="glyph-1-16">
<path d="M 0.0742188 0 L 2.03125 -2.78125 L 0.222656 -5.351562 L 1.355469 -5.351562 L 2.175781 -4.097656 C 2.328125 -3.855469 2.453125 -3.65625 2.550781 -3.496094 C 2.695312 -3.714844 2.832031 -3.910156 2.957031 -4.085938 L 3.859375 -5.351562 L 4.941406 -5.351562 L 3.09375 -2.832031 L 5.085938 0 L 3.972656 0 L 2.871094 -1.664062 L 2.578125 -2.113281 L 1.175781 0 Z M 0.0742188 0 "/>
</g>
<g id="glyph-1-17">
<path d="M 0.683594 -6.34375 L 0.683594 -7.386719 L 1.59375 -7.386719 L 1.59375 -6.34375 Z M 0.683594 0 L 0.683594 -5.351562 L 1.59375 -5.351562 L 1.59375 0 Z M 0.683594 0 "/>
</g>
<g id="glyph-1-18">
<path d="M 0.660156 0 L 0.660156 -7.386719 L 1.566406 -7.386719 L 1.566406 0 Z M 0.660156 0 "/>
</g>
<g id="glyph-1-19">
<path d="M 0.679688 2.050781 L 0.679688 -5.351562 L 1.507812 -5.351562 L 1.507812 -4.65625 C 1.699219 -4.925781 1.921875 -5.128906 2.167969 -5.265625 C 2.410156 -5.402344 2.707031 -5.472656 3.058594 -5.472656 C 3.511719 -5.472656 3.914062 -5.351562 4.265625 -5.117188 C 4.617188 -4.878906 4.878906 -4.546875 5.058594 -4.121094 C 5.234375 -3.691406 5.324219 -3.222656 5.328125 -2.714844 C 5.324219 -2.164062 5.226562 -1.671875 5.03125 -1.234375 C 4.832031 -0.792969 4.546875 -0.457031 4.175781 -0.226562 C 3.796875 0.00390625 3.402344 0.117188 2.992188 0.121094 C 2.6875 0.117188 2.417969 0.0546875 2.179688 -0.0703125 C 1.9375 -0.195312 1.738281 -0.355469 1.585938 -0.554688 L 1.585938 2.050781 Z M 1.5 -2.644531 C 1.5 -1.953125 1.636719 -1.445312 1.917969 -1.117188 C 2.195312 -0.785156 2.535156 -0.621094 2.933594 -0.625 C 3.335938 -0.621094 3.679688 -0.792969 3.96875 -1.136719 C 4.25 -1.476562 4.394531 -2.003906 4.398438 -2.722656 C 4.394531 -3.398438 4.253906 -3.90625 3.976562 -4.25 C 3.695312 -4.585938 3.359375 -4.757812 2.972656 -4.761719 C 2.582031 -4.757812 2.242188 -4.578125 1.945312 -4.21875 C 1.648438 -3.859375 1.5 -3.332031 1.5 -2.644531 Z M 1.5 -2.644531 "/>
</g>
<g id="glyph-1-20">
<path d="M 0.679688 0 L 0.679688 -7.386719 L 1.585938 -7.386719 L 1.585938 -4.738281 C 2.007812 -5.226562 2.542969 -5.472656 3.191406 -5.472656 C 3.585938 -5.472656 3.929688 -5.394531 4.222656 -5.238281 C 4.511719 -5.082031 4.71875 -4.863281 4.847656 -4.589844 C 4.972656 -4.308594 5.039062 -3.910156 5.039062 -3.390625 L 5.039062 0 L 4.132812 0 L 4.132812 -3.390625 C 4.128906 -3.839844 4.03125 -4.167969 3.835938 -4.378906 C 3.636719 -4.582031 3.359375 -4.6875 3.003906 -4.691406 C 2.734375 -4.6875 2.480469 -4.617188 2.246094 -4.480469 C 2.003906 -4.339844 1.835938 -4.152344 1.738281 -3.914062 C 1.632812 -3.675781 1.582031 -3.34375 1.585938 -2.925781 L 1.585938 0 Z M 0.679688 0 "/>
</g>
<g id="glyph-1-21">
<path d="M 2.085938 0 L 0.125 -7.386719 L 1.128906 -7.386719 L 2.253906 -2.542969 C 2.371094 -2.035156 2.476562 -1.53125 2.566406 -1.03125 C 2.753906 -1.820312 2.863281 -2.273438 2.898438 -2.398438 L 4.304688 -7.386719 L 5.484375 -7.386719 L 6.539062 -3.648438 C 6.804688 -2.71875 6.996094 -1.847656 7.113281 -1.03125 C 7.207031 -1.5 7.328125 -2.035156 7.484375 -2.640625 L 8.640625 -7.386719 L 9.625 -7.386719 L 7.597656 0 L 6.65625 0 L 5.097656 -5.628906 C 4.964844 -6.097656 4.886719 -6.386719 4.867188 -6.496094 C 4.785156 -6.15625 4.714844 -5.867188 4.652344 -5.628906 L 3.082031 0 Z M 2.085938 0 "/>
</g>
<g id="glyph-1-22">
<path d="M 4.1875 0 L 4.1875 -0.785156 C 3.769531 -0.183594 3.203125 0.117188 2.488281 0.121094 C 2.171875 0.117188 1.878906 0.0585938 1.605469 -0.0585938 C 1.332031 -0.179688 1.128906 -0.332031 0.996094 -0.515625 C 0.863281 -0.699219 0.769531 -0.921875 0.714844 -1.1875 C 0.675781 -1.363281 0.65625 -1.644531 0.660156 -2.035156 L 0.660156 -5.351562 L 1.566406 -5.351562 L 1.566406 -2.382812 C 1.5625 -1.90625 1.582031 -1.585938 1.621094 -1.425781 C 1.675781 -1.183594 1.796875 -0.996094 1.984375 -0.863281 C 2.167969 -0.722656 2.398438 -0.65625 2.671875 -0.660156 C 2.941406 -0.65625 3.195312 -0.726562 3.433594 -0.867188 C 3.671875 -1.007812 3.839844 -1.195312 3.941406 -1.4375 C 4.039062 -1.675781 4.089844 -2.027344 4.089844 -2.484375 L 4.089844 -5.351562 L 5 -5.351562 L 5 0 Z M 4.1875 0 "/>
</g>
<g id="glyph-1-23">
<path d="M 0.796875 0 L 0.796875 -7.386719 L 3.582031 -7.386719 C 4.070312 -7.382812 4.445312 -7.359375 4.707031 -7.316406 C 5.066406 -7.253906 5.371094 -7.140625 5.617188 -6.972656 C 5.863281 -6.800781 6.0625 -6.5625 6.210938 -6.257812 C 6.359375 -5.953125 6.433594 -5.617188 6.433594 -5.25 C 6.433594 -4.621094 6.230469 -4.089844 5.832031 -3.65625 C 5.429688 -3.21875 4.710938 -3 3.667969 -3.003906 L 1.773438 -3.003906 L 1.773438 0 Z M 1.773438 -3.875 L 3.683594 -3.875 C 4.3125 -3.871094 4.761719 -3.988281 5.027344 -4.226562 C 5.292969 -4.460938 5.425781 -4.792969 5.425781 -5.21875 C 5.425781 -5.527344 5.347656 -5.792969 5.191406 -6.011719 C 5.035156 -6.230469 4.828125 -6.375 4.574219 -6.449219 C 4.40625 -6.492188 4.101562 -6.515625 3.664062 -6.515625 L 1.773438 -6.515625 Z M 1.773438 -3.875 "/>
</g>
<g id="glyph-1-24">
<path d="M 0.679688 0 L 0.679688 -5.351562 L 1.492188 -5.351562 L 1.492188 -4.601562 C 1.65625 -4.859375 1.878906 -5.070312 2.160156 -5.230469 C 2.4375 -5.390625 2.753906 -5.472656 3.113281 -5.472656 C 3.503906 -5.472656 3.828125 -5.390625 4.085938 -5.226562 C 4.335938 -5.0625 4.515625 -4.832031 4.625 -4.535156 C 5.046875 -5.160156 5.597656 -5.472656 6.277344 -5.472656 C 6.804688 -5.472656 7.214844 -5.324219 7.5 -5.03125 C 7.785156 -4.734375 7.925781 -4.28125 7.929688 -3.671875 L 7.929688 0 L 7.03125 0 L 7.03125 -3.371094 C 7.03125 -3.730469 7 -3.992188 6.941406 -4.152344 C 6.878906 -4.3125 6.773438 -4.441406 6.621094 -4.539062 C 6.464844 -4.636719 6.28125 -4.6875 6.078125 -4.6875 C 5.695312 -4.6875 5.382812 -4.558594 5.136719 -4.308594 C 4.886719 -4.054688 4.761719 -3.65625 4.765625 -3.109375 L 4.765625 0 L 3.859375 0 L 3.859375 -3.476562 C 3.855469 -3.875 3.78125 -4.179688 3.636719 -4.382812 C 3.488281 -4.585938 3.246094 -4.6875 2.914062 -4.6875 C 2.65625 -4.6875 2.421875 -4.617188 2.203125 -4.484375 C 1.984375 -4.34375 1.824219 -4.148438 1.730469 -3.894531 C 1.628906 -3.632812 1.582031 -3.261719 1.585938 -2.777344 L 1.585938 0 Z M 0.679688 0 "/>
</g>
<g id="glyph-1-25">
<path d="M 6.066406 -2.589844 L 7.042969 -2.34375 C 6.839844 -1.539062 6.46875 -0.925781 5.9375 -0.507812 C 5.402344 -0.0859375 4.753906 0.121094 3.984375 0.125 C 3.1875 0.121094 2.539062 -0.0351562 2.042969 -0.359375 C 1.542969 -0.679688 1.164062 -1.152344 0.90625 -1.769531 C 0.644531 -2.382812 0.515625 -3.042969 0.515625 -3.75 C 0.515625 -4.515625 0.660156 -5.183594 0.953125 -5.761719 C 1.246094 -6.332031 1.664062 -6.769531 2.207031 -7.066406 C 2.75 -7.363281 3.347656 -7.511719 4 -7.511719 C 4.738281 -7.511719 5.359375 -7.320312 5.863281 -6.945312 C 6.367188 -6.566406 6.71875 -6.039062 6.917969 -5.363281 L 5.957031 -5.136719 C 5.78125 -5.671875 5.53125 -6.0625 5.210938 -6.308594 C 4.882812 -6.550781 4.472656 -6.671875 3.980469 -6.675781 C 3.410156 -6.671875 2.9375 -6.535156 2.554688 -6.265625 C 2.171875 -5.992188 1.902344 -5.628906 1.753906 -5.171875 C 1.597656 -4.710938 1.523438 -4.238281 1.523438 -3.753906 C 1.523438 -3.125 1.613281 -2.578125 1.796875 -2.109375 C 1.976562 -1.640625 2.261719 -1.289062 2.648438 -1.058594 C 3.035156 -0.824219 3.453125 -0.707031 3.90625 -0.710938 C 4.449219 -0.707031 4.914062 -0.867188 5.296875 -1.183594 C 5.675781 -1.496094 5.929688 -1.964844 6.066406 -2.589844 Z M 6.066406 -2.589844 "/>
</g>
<g id="glyph-1-26">
<path d="M 0.8125 0 L 0.8125 -7.386719 L 4.085938 -7.386719 C 4.742188 -7.382812 5.242188 -7.316406 5.585938 -7.1875 C 5.925781 -7.050781 6.203125 -6.816406 6.410156 -6.484375 C 6.613281 -6.144531 6.714844 -5.773438 6.71875 -5.371094 C 6.714844 -4.84375 6.542969 -4.402344 6.207031 -4.046875 C 5.863281 -3.683594 5.339844 -3.453125 4.636719 -3.359375 C 4.890625 -3.234375 5.089844 -3.113281 5.226562 -2.992188 C 5.507812 -2.730469 5.777344 -2.402344 6.035156 -2.011719 L 7.320312 0 L 6.09375 0 L 5.113281 -1.535156 C 4.828125 -1.980469 4.59375 -2.320312 4.410156 -2.554688 C 4.222656 -2.789062 4.058594 -2.953125 3.914062 -3.046875 C 3.765625 -3.140625 3.617188 -3.207031 3.46875 -3.246094 C 3.355469 -3.269531 3.171875 -3.28125 2.921875 -3.28125 L 1.789062 -3.28125 L 1.789062 0 Z M 1.789062 -4.128906 L 3.890625 -4.128906 C 4.335938 -4.125 4.683594 -4.171875 4.9375 -4.265625 C 5.1875 -4.355469 5.378906 -4.5 5.511719 -4.707031 C 5.640625 -4.910156 5.707031 -5.132812 5.710938 -5.371094 C 5.707031 -5.71875 5.578125 -6.003906 5.328125 -6.230469 C 5.070312 -6.453125 4.671875 -6.566406 4.128906 -6.570312 L 1.789062 -6.570312 Z M 1.789062 -4.128906 "/>
</g>
<g id="glyph-1-27">
<path d="M 0.785156 0 L 0.785156 -7.386719 L 1.789062 -7.386719 L 5.667969 -1.585938 L 5.667969 -7.386719 L 6.605469 -7.386719 L 6.605469 0 L 5.601562 0 L 1.722656 -5.804688 L 1.722656 0 Z M 0.785156 0 "/>
</g>
<g id="glyph-1-28">
<path d="M 0.679688 0 L 0.679688 -5.351562 L 1.496094 -5.351562 L 1.496094 -4.589844 C 1.886719 -5.175781 2.457031 -5.472656 3.199219 -5.472656 C 3.519531 -5.472656 3.816406 -5.414062 4.089844 -5.296875 C 4.359375 -5.179688 4.558594 -5.027344 4.695312 -4.839844 C 4.828125 -4.652344 4.925781 -4.429688 4.980469 -4.171875 C 5.011719 -4.003906 5.027344 -3.707031 5.027344 -3.289062 L 5.027344 0 L 4.121094 0 L 4.121094 -3.253906 C 4.117188 -3.621094 4.082031 -3.898438 4.015625 -4.082031 C 3.941406 -4.265625 3.816406 -4.414062 3.640625 -4.523438 C 3.457031 -4.632812 3.246094 -4.6875 3.007812 -4.6875 C 2.617188 -4.6875 2.285156 -4.5625 2.007812 -4.316406 C 1.722656 -4.070312 1.582031 -3.605469 1.585938 -2.921875 L 1.585938 0 Z M 0.679688 0 "/>
</g>
<g id="glyph-1-29">
<path d="M 0.328125 -2.21875 L 0.328125 -3.128906 L 3.113281 -3.128906 L 3.113281 -2.21875 Z M 0.328125 -2.21875 "/>
</g>
</g>
<clipPath id="clip-0">
<path clip-rule="nonzero" d="M 79.199219 472 L 1075.078125 472 L 1075.078125 472.960938 L 79.199219 472.960938 Z M 79.199219 472 "/>
</clipPath>
<clipPath id="clip-1">
<path clip-rule="nonzero" d="M 79.199219 364 L 1075.078125 364 L 1075.078125 366 L 79.199219 366 Z M 79.199219 364 "/>
</clipPath>
<clipPath id="clip-2">
<path clip-rule="nonzero" d="M 79.199219 255 L 1075.078125 255 L 1075.078125 258 L 79.199219 258 Z M 79.199219 255 "/>
</clipPath>
<clipPath id="clip-3">
<path clip-rule="nonzero" d="M 79.199219 147 L 1075.078125 147 L 1075.078125 150 L 79.199219 150 Z M 79.199219 147 "/>
</clipPath>
<clipPath id="clip-4">
<path clip-rule="nonzero" d="M 79.199219 40.320312 L 1075.078125 40.320312 L 1075.078125 42 L 79.199219 42 Z M 79.199219 40.320312 "/>
</clipPath>
<clipPath id="clip-5">
<path clip-rule="nonzero" d="M 79.199219 40.320312 L 80 40.320312 L 80 472.960938 L 79.199219 472.960938 Z M 79.199219 40.320312 "/>
</clipPath>
<clipPath id="clip-6">
<path clip-rule="nonzero" d="M 461 40.320312 L 463 40.320312 L 463 472.960938 L 461 472.960938 Z M 461 40.320312 "/>
</clipPath>
<clipPath id="clip-7">
<path clip-rule="nonzero" d="M 844 40.320312 L 847 40.320312 L 847 472.960938 L 844 472.960938 Z M 844 40.320312 "/>
</clipPath>
<clipPath id="clip-8">
<path clip-rule="nonzero" d="M 1074 40.320312 L 1075.078125 40.320312 L 1075.078125 472.960938 L 1074 472.960938 Z M 1074 40.320312 "/>
</clipPath>
<clipPath id="clip-9">
<path clip-rule="nonzero" d="M 79.199219 40.320312 L 1075.078125 40.320312 L 1075.078125 152 L 79.199219 152 Z M 79.199219 40.320312 "/>
</clipPath>
<clipPath id="clip-10">
<path clip-rule="nonzero" d="M 79.199219 295 L 1075.078125 295 L 1075.078125 440 L 79.199219 440 Z M 79.199219 295 "/>
</clipPath>
<clipPath id="clip-11">
<path clip-rule="nonzero" d="M 79.199219 128 L 1075.078125 128 L 1075.078125 279 L 79.199219 279 Z M 79.199219 128 "/>
</clipPath>
<clipPath id="clip-12">
<path clip-rule="nonzero" d="M 79.199219 176 L 1075.078125 176 L 1075.078125 312 L 79.199219 312 Z M 79.199219 176 "/>
</clipPath>
<clipPath id="clip-13">
<path clip-rule="nonzero" d="M 79.199219 232 L 1075.078125 232 L 1075.078125 427 L 79.199219 427 Z M 79.199219 232 "/>
</clipPath>
<clipPath id="clip-14">
<path clip-rule="nonzero" d="M 79.199219 237 L 1075.078125 237 L 1075.078125 420 L 79.199219 420 Z M 79.199219 237 "/>
</clipPath>
<clipPath id="clip-15">
<path clip-rule="nonzero" d="M 79.199219 280 L 1075.078125 280 L 1075.078125 452 L 79.199219 452 Z M 79.199219 280 "/>
</clipPath>
<clipPath id="clip-16">
<path clip-rule="nonzero" d="M 79.199219 188 L 1075.078125 188 L 1075.078125 366 L 79.199219 366 Z M 79.199219 188 "/>
</clipPath>
<clipPath id="clip-17">
<path clip-rule="nonzero" d="M 79.199219 72 L 1075.078125 72 L 1075.078125 221 L 79.199219 221 Z M 79.199219 72 "/>
</clipPath>
</defs>
<rect x="-110.1" y="-64" width="1321.2" height="768" fill="rgb(100%, 100%, 100%)" fill-opacity="1"/>
<g clip-path="url(#clip-0)">
<path fill="none" stroke-width="1.5" stroke-linecap="round" stroke-linejoin="round" stroke="rgb(81.176471%, 81.176471%, 81.176471%)" stroke-opacity="1" stroke-dasharray="6 6" stroke-miterlimit="10" d="M 79.199219 472.960938 L 1075.078125 472.960938 "/>
</g>
<g clip-path="url(#clip-1)">
<path fill="none" stroke-width="1.5" stroke-linecap="round" stroke-linejoin="round" stroke="rgb(81.176471%, 81.176471%, 81.176471%)" stroke-opacity="1" stroke-dasharray="6 6" stroke-miterlimit="10" d="M 79.199219 364.800781 L 1075.078125 364.800781 "/>
</g>
<g clip-path="url(#clip-2)">
<path fill="none" stroke-width="1.5" stroke-linecap="round" stroke-linejoin="round" stroke="rgb(81.176471%, 81.176471%, 81.176471%)" stroke-opacity="1" stroke-dasharray="6 6" stroke-miterlimit="10" d="M 79.199219 256.640625 L 1075.078125 256.640625 "/>
</g>
<g clip-path="url(#clip-3)">
<path fill="none" stroke-width="1.5" stroke-linecap="round" stroke-linejoin="round" stroke="rgb(81.176471%, 81.176471%, 81.176471%)" stroke-opacity="1" stroke-dasharray="6 6" stroke-miterlimit="10" d="M 79.199219 148.480469 L 1075.078125 148.480469 "/>
</g>
<g clip-path="url(#clip-4)">
<path fill="none" stroke-width="1.5" stroke-linecap="round" stroke-linejoin="round" stroke="rgb(81.176471%, 81.176471%, 81.176471%)" stroke-opacity="1" stroke-dasharray="6 6" stroke-miterlimit="10" d="M 79.199219 40.320312 L 1075.078125 40.320312 "/>
</g>
<g clip-path="url(#clip-5)">
<path fill="none" stroke-width="1.5" stroke-linecap="round" stroke-linejoin="round" stroke="rgb(85.098039%, 85.098039%, 85.098039%)" stroke-opacity="1" stroke-dasharray="1.5 4.5 6 4.5" stroke-miterlimit="10" d="M 79.199219 472.960938 L 79.199219 40.320312 "/>
</g>
<g clip-path="url(#clip-6)">
<path fill="none" stroke-width="1.5" stroke-linecap="round" stroke-linejoin="round" stroke="rgb(85.098039%, 85.098039%, 85.098039%)" stroke-opacity="1" stroke-dasharray="1.5 4.5 6 4.5" stroke-miterlimit="10" d="M 462.230469 472.960938 L 462.230469 40.320312 "/>
</g>
<g clip-path="url(#clip-7)">
<path fill="none" stroke-width="1.5" stroke-linecap="round" stroke-linejoin="round" stroke="rgb(85.098039%, 85.098039%, 85.098039%)" stroke-opacity="1" stroke-dasharray="1.5 4.5 6 4.5" stroke-miterlimit="10" d="M 845.261719 472.960938 L 845.261719 40.320312 "/>
</g>
<g clip-path="url(#clip-8)">
<path fill="none" stroke-width="1.5" stroke-linecap="round" stroke-linejoin="round" stroke="rgb(85.098039%, 85.098039%, 85.098039%)" stroke-opacity="1" stroke-dasharray="1.5 4.5 6 4.5" stroke-miterlimit="10" d="M 1075.078125 472.960938 L 1075.078125 40.320312 "/>
</g>
<g fill="rgb(33.333333%, 33.333333%, 33.333333%)" fill-opacity="1">
<use xlink:href="#glyph-0-0" x="62.515625" y="498.878906"/>
<use xlink:href="#glyph-0-1" x="70.85791" y="498.878906"/>
<use xlink:href="#glyph-0-2" x="79.200195" y="498.878906"/>
<use xlink:href="#glyph-0-1" x="87.54248" y="498.878906"/>
</g>
<g fill="rgb(33.333333%, 33.333333%, 33.333333%)" fill-opacity="1">
<use xlink:href="#glyph-0-0" x="445.546875" y="498.878906"/>
<use xlink:href="#glyph-0-1" x="453.88916" y="498.878906"/>
<use xlink:href="#glyph-0-2" x="462.231445" y="498.878906"/>
<use xlink:href="#glyph-0-3" x="470.57373" y="498.878906"/>
</g>
<g fill="rgb(33.333333%, 33.333333%, 33.333333%)" fill-opacity="1">
<use xlink:href="#glyph-0-0" x="828.578125" y="498.878906"/>
<use xlink:href="#glyph-0-1" x="836.92041" y="498.878906"/>
<use xlink:href="#glyph-0-0" x="845.262695" y="498.878906"/>
<use xlink:href="#glyph-0-1" x="853.60498" y="498.878906"/>
</g>
<g fill="rgb(33.333333%, 33.333333%, 33.333333%)" fill-opacity="1">
<use xlink:href="#glyph-0-0" x="1058.394531" y="498.878906"/>
<use xlink:href="#glyph-0-1" x="1066.736816" y="498.878906"/>
<use xlink:href="#glyph-0-0" x="1075.079102" y="498.878906"/>
<use xlink:href="#glyph-0-4" x="1083.421387" y="498.878906"/>
</g>
<g fill="rgb(33.333333%, 33.333333%, 33.333333%)" fill-opacity="1">
<use xlink:href="#glyph-0-1" x="43.121094" y="478.328125"/>
<use xlink:href="#glyph-0-5" x="51.463379" y="478.328125"/>
</g>
<g fill="rgb(33.333333%, 33.333333%, 33.333333%)" fill-opacity="1">
<use xlink:href="#glyph-0-0" x="34.777344" y="370.167969"/>
<use xlink:href="#glyph-0-1" x="43.119629" y="370.167969"/>
<use xlink:href="#glyph-0-5" x="51.461914" y="370.167969"/>
</g>
<g fill="rgb(33.333333%, 33.333333%, 33.333333%)" fill-opacity="1">
<use xlink:href="#glyph-0-6" x="34.777344" y="262.007812"/>
<use xlink:href="#glyph-0-1" x="43.119629" y="262.007812"/>
<use xlink:href="#glyph-0-5" x="51.461914" y="262.007812"/>
</g>
<g fill="rgb(33.333333%, 33.333333%, 33.333333%)" fill-opacity="1">
<use xlink:href="#glyph-0-7" x="34.777344" y="153.847656"/>
<use xlink:href="#glyph-0-1" x="43.119629" y="153.847656"/>
<use xlink:href="#glyph-0-5" x="51.461914" y="153.847656"/>
</g>
<g fill="rgb(33.333333%, 33.333333%, 33.333333%)" fill-opacity="1">
<use xlink:href="#glyph-0-8" x="34.777344" y="45.6875"/>
<use xlink:href="#glyph-0-1" x="43.119629" y="45.6875"/>
<use xlink:href="#glyph-0-5" x="51.461914" y="45.6875"/>
</g>
<g clip-path="url(#clip-9)">
<path fill="none" stroke-width="3.75" stroke-linecap="square" stroke-linejoin="miter" stroke="rgb(88.235294%, 34.117647%, 34.901961%)" stroke-opacity="1" stroke-miterlimit="10" d="M 79.199219 73.617188 L 155.804688 74.105469 L 232.414062 73.554688 L 309.019531 77.230469 L 385.625 74.238281 L 462.230469 79.375 L 538.835938 79.878906 L 615.441406 81.425781 L 692.050781 82.816406 L 768.65625 79.667969 L 845.261719 83.261719 L 921.867188 88.359375 L 998.472656 98.339844 L 1075.078125 83.300781 "/>
</g>
<g clip-path="url(#clip-10)">
<path fill="none" stroke-width="3.75" stroke-linecap="square" stroke-linejoin="miter" stroke="rgb(94.901961%, 55.686275%, 16.862745%)" stroke-opacity="1" stroke-miterlimit="10" d="M 79.199219 348.984375 L 155.804688 357.445312 L 232.414062 353.011719 L 309.019531 366.589844 L 385.625 373.636719 L 462.230469 375.207031 L 538.835938 381.371094 L 615.441406 385.984375 L 692.050781 383.863281 L 768.65625 384.933594 L 845.261719 359.589844 L 921.867188 356.828125 L 998.472656 378.175781 L 1075.078125 354.222656 "/>
</g>
<g clip-path="url(#clip-11)">
<path fill="none" stroke-width="3.75" stroke-linecap="square" stroke-linejoin="miter" stroke="rgb(92.941176%, 78.823529%, 28.235294%)" stroke-opacity="1" stroke-miterlimit="10" d="M 79.199219 201.691406 L 155.804688 188.25 L 232.414062 183.464844 L 309.019531 182 L 385.625 197.546875 L 462.230469 203.894531 L 538.835938 208.8125 L 615.441406 214.351562 L 692.050781 217.71875 L 768.65625 212.023438 L 845.261719 213.640625 L 921.867188 225.515625 L 998.472656 209.324219 L 1075.078125 205.417969 "/>
</g>
<g clip-path="url(#clip-12)">
<path fill="none" stroke-width="3.75" stroke-linecap="square" stroke-linejoin="miter" stroke="rgb(34.901961%, 63.137255%, 30.980392%)" stroke-opacity="1" stroke-miterlimit="10" d="M 79.199219 238.855469 L 155.804688 237.941406 L 232.414062 229.21875 L 309.019531 234.195312 L 385.625 233.964844 L 462.230469 234.875 L 538.835938 238.328125 L 615.441406 240.453125 L 692.050781 243.066406 L 768.65625 248.820312 L 845.261719 249.464844 L 921.867188 258.699219 L 998.472656 257.445312 L 1075.078125 254.742188 "/>
</g>
<g clip-path="url(#clip-13)">
<path fill="none" stroke-width="3.75" stroke-linecap="square" stroke-linejoin="miter" stroke="rgb(30.588235%, 47.45098%, 65.490196%)" stroke-opacity="1" stroke-miterlimit="10" d="M 79.199219 285.070312 L 155.804688 294.972656 L 232.414062 298.734375 L 309.019531 301.507812 L 385.625 303.761719 L 462.230469 308.570312 L 538.835938 293.769531 L 615.441406 315.238281 L 692.050781 336.007812 L 768.65625 345.582031 L 845.261719 351.066406 L 921.867188 373.128906 L 998.472656 289.453125 L 1075.078125 335.472656 "/>
</g>
<g clip-path="url(#clip-14)">
<path fill="none" stroke-width="3.75" stroke-linecap="square" stroke-linejoin="miter" stroke="rgb(68.627451%, 47.843137%, 63.137255%)" stroke-opacity="1" stroke-miterlimit="10" d="M 79.199219 295.375 L 155.804688 294.671875 L 232.414062 298.363281 L 309.019531 290.472656 L 385.625 295.25 L 462.230469 297.605469 L 538.835938 303.382812 L 615.441406 304.101562 L 692.050781 306.457031 L 768.65625 309.117188 L 845.261719 348.332031 L 921.867188 352.246094 L 998.472656 362.535156 L 1075.078125 366.597656 "/>
</g>
<g clip-path="url(#clip-15)">
<path fill="none" stroke-width="3.75" stroke-linecap="square" stroke-linejoin="miter" stroke="rgb(100%, 61.568627%, 65.490196%)" stroke-opacity="1" stroke-miterlimit="10" d="M 79.199219 335.71875 L 155.804688 333.65625 L 232.414062 366.121094 L 309.019531 358.664062 L 385.625 366.617188 L 462.230469 371.894531 L 538.835938 382.667969 L 615.441406 380.703125 L 692.050781 384.847656 L 768.65625 398.035156 L 845.261719 395.898438 L 921.867188 383.371094 L 998.472656 397.035156 L 1075.078125 395.761719 "/>
</g>
<g clip-path="url(#clip-16)">
<path fill="none" stroke-width="3.75" stroke-linecap="square" stroke-linejoin="miter" stroke="rgb(61.176471%, 45.882353%, 37.254902%)" stroke-opacity="1" stroke-miterlimit="10" d="M 79.199219 241.484375 L 155.804688 246.464844 L 232.414062 246.871094 L 309.019531 253.535156 L 385.625 259.171875 L 462.230469 259.996094 L 538.835938 264.960938 L 615.441406 272.449219 L 692.050781 273.453125 L 768.65625 275.542969 L 845.261719 295.777344 L 921.867188 301.246094 L 998.472656 312.957031 L 1075.078125 292.632812 "/>
</g>
<g clip-path="url(#clip-17)">
<path fill="none" stroke-width="3.75" stroke-linecap="square" stroke-linejoin="miter" stroke="rgb(72.941176%, 69.019608%, 67.45098%)" stroke-opacity="1" stroke-miterlimit="10" d="M 79.199219 125.613281 L 155.804688 130.359375 L 232.414062 128.046875 L 309.019531 129.007812 L 385.625 132.726562 L 462.230469 136.59375 L 538.835938 140.941406 L 615.441406 144.617188 L 692.050781 148.960938 L 768.65625 142.46875 L 845.261719 145.898438 L 921.867188 155.371094 L 998.472656 167.058594 L 1075.078125 146.429688 "/>
</g>
<path fill-rule="nonzero" fill="rgb(100%, 100%, 100%)" fill-opacity="1" stroke-width="0.75" stroke-linecap="round" stroke-linejoin="round" stroke="rgb(81.176471%, 81.176471%, 81.176471%)" stroke-opacity="1" stroke-miterlimit="10" d="M 416.097656 541.425781 L 738.183594 541.425781 L 738.183594 615.730469 L 416.097656 615.730469 Z M 416.097656 541.425781 "/>
<path fill="none" stroke-width="3.75" stroke-linecap="round" stroke-linejoin="round" stroke="rgb(88.235294%, 34.117647%, 34.901961%)" stroke-opacity="1" stroke-miterlimit="10" d="M 425.382812 553.8125 L 439.316406 553.8125 "/>
<path fill="none" stroke-width="3.75" stroke-linecap="round" stroke-linejoin="round" stroke="rgb(94.901961%, 55.686275%, 16.862745%)" stroke-opacity="1" stroke-miterlimit="10" d="M 425.382812 566.195312 L 439.316406 566.195312 "/>
<path fill="none" stroke-width="3.75" stroke-linecap="round" stroke-linejoin="round" stroke="rgb(92.941176%, 78.823529%, 28.235294%)" stroke-opacity="1" stroke-miterlimit="10" d="M 425.382812 578.578125 L 439.316406 578.578125 "/>
<path fill="none" stroke-width="3.75" stroke-linecap="round" stroke-linejoin="round" stroke="rgb(34.901961%, 63.137255%, 30.980392%)" stroke-opacity="1" stroke-miterlimit="10" d="M 425.382812 590.964844 L 439.316406 590.964844 "/>
<path fill="none" stroke-width="3.75" stroke-linecap="round" stroke-linejoin="round" stroke="rgb(30.588235%, 47.45098%, 65.490196%)" stroke-opacity="1" stroke-miterlimit="10" d="M 425.382812 603.347656 L 439.316406 603.347656 "/>
<path fill="none" stroke-width="3.75" stroke-linecap="round" stroke-linejoin="round" stroke="rgb(68.627451%, 47.843137%, 63.137255%)" stroke-opacity="1" stroke-miterlimit="10" d="M 584.105469 553.8125 L 598.039062 553.8125 "/>
<path fill="none" stroke-width="3.75" stroke-linecap="round" stroke-linejoin="round" stroke="rgb(100%, 61.568627%, 65.490196%)" stroke-opacity="1" stroke-miterlimit="10" d="M 584.105469 566.195312 L 598.039062 566.195312 "/>
<path fill="none" stroke-width="3.75" stroke-linecap="round" stroke-linejoin="round" stroke="rgb(61.176471%, 45.882353%, 37.254902%)" stroke-opacity="1" stroke-miterlimit="10" d="M 584.105469 578.578125 L 598.039062 578.578125 "/>
<path fill="none" stroke-width="3.75" stroke-linecap="round" stroke-linejoin="round" stroke="rgb(72.941176%, 69.019608%, 67.45098%)" stroke-opacity="1" stroke-miterlimit="10" d="M 584.105469 590.964844 L 598.039062 590.964844 "/>
<g fill="rgb(0%, 0%, 0%)" fill-opacity="1">
<use xlink:href="#glyph-1-0" x="448.605469" y="557.503906"/>
<use xlink:href="#glyph-1-1" x="454.909336" y="557.503906"/>
<use xlink:href="#glyph-1-1" x="460.648828" y="557.503906"/>
<use xlink:href="#glyph-1-2" x="466.38832" y="557.503906"/>
<use xlink:href="#glyph-1-3" x="472.127812" y="557.503906"/>
<use xlink:href="#glyph-1-4" x="474.995039" y="557.503906"/>
<use xlink:href="#glyph-1-5" x="477.862266" y="557.503906"/>
<use xlink:href="#glyph-1-6" x="483.601758" y="557.503906"/>
<use xlink:href="#glyph-1-7" x="489.34125" y="557.503906"/>
<use xlink:href="#glyph-1-6" x="494.50125" y="557.503906"/>
<use xlink:href="#glyph-1-8" x="500.240742" y="557.503906"/>
<use xlink:href="#glyph-1-9" x="503.677383" y="557.503906"/>
<use xlink:href="#glyph-1-10" x="509.416875" y="557.503906"/>
<use xlink:href="#glyph-1-6" x="515.156367" y="557.503906"/>
<use xlink:href="#glyph-1-11" x="520.895859" y="557.503906"/>
<use xlink:href="#glyph-1-4" x="526.055859" y="557.503906"/>
<use xlink:href="#glyph-1-12" x="528.923086" y="557.503906"/>
<use xlink:href="#glyph-1-4" x="535.806445" y="557.503906"/>
<use xlink:href="#glyph-1-13" x="538.673672" y="557.503906"/>
<use xlink:href="#glyph-1-1" x="541.540898" y="557.503906"/>
<use xlink:href="#glyph-1-5" x="547.280391" y="557.503906"/>
<use xlink:href="#glyph-1-9" x="553.019883" y="557.503906"/>
<use xlink:href="#glyph-1-14" x="558.759375" y="557.503906"/>
<use xlink:href="#glyph-1-14" x="563.919375" y="557.503906"/>
<use xlink:href="#glyph-1-1" x="569.079375" y="557.503906"/>
</g>
<g fill="rgb(0%, 0%, 0%)" fill-opacity="1">
<use xlink:href="#glyph-1-15" x="448.605469" y="569.890625"/>
<use xlink:href="#glyph-1-6" x="454.909336" y="569.890625"/>
<use xlink:href="#glyph-1-16" x="460.648828" y="569.890625"/>
<use xlink:href="#glyph-1-13" x="465.808828" y="569.890625"/>
<use xlink:href="#glyph-1-17" x="468.676055" y="569.890625"/>
<use xlink:href="#glyph-1-18" x="470.968828" y="569.890625"/>
<use xlink:href="#glyph-1-6" x="473.261602" y="569.890625"/>
<use xlink:href="#glyph-1-11" x="479.001094" y="569.890625"/>
<use xlink:href="#glyph-1-3" x="484.161094" y="569.890625"/>
<use xlink:href="#glyph-1-4" x="487.02832" y="569.890625"/>
<use xlink:href="#glyph-1-9" x="489.895547" y="569.890625"/>
<use xlink:href="#glyph-1-19" x="495.635039" y="569.890625"/>
<use xlink:href="#glyph-1-19" x="501.374531" y="569.890625"/>
<use xlink:href="#glyph-1-9" x="507.114023" y="569.890625"/>
<use xlink:href="#glyph-1-8" x="512.853516" y="569.890625"/>
<use xlink:href="#glyph-1-6" x="516.290156" y="569.890625"/>
<use xlink:href="#glyph-1-18" x="522.029648" y="569.890625"/>
<use xlink:href="#glyph-1-4" x="524.322422" y="569.890625"/>
<use xlink:href="#glyph-1-12" x="527.189648" y="569.890625"/>
<use xlink:href="#glyph-1-4" x="534.073008" y="569.890625"/>
<use xlink:href="#glyph-1-18" x="536.940234" y="569.890625"/>
<use xlink:href="#glyph-1-6" x="539.233008" y="569.890625"/>
<use xlink:href="#glyph-1-9" x="544.9725" y="569.890625"/>
<use xlink:href="#glyph-1-13" x="550.711992" y="569.890625"/>
<use xlink:href="#glyph-1-20" x="553.579219" y="569.890625"/>
<use xlink:href="#glyph-1-6" x="559.318711" y="569.890625"/>
<use xlink:href="#glyph-1-8" x="565.058203" y="569.890625"/>
</g>
<g fill="rgb(0%, 0%, 0%)" fill-opacity="1">
<use xlink:href="#glyph-1-21" x="448.605469" y="582.273438"/>
<use xlink:href="#glyph-1-1" x="458.345977" y="582.273438"/>
<use xlink:href="#glyph-1-1" x="464.085469" y="582.273438"/>
<use xlink:href="#glyph-1-2" x="469.824961" y="582.273438"/>
<use xlink:href="#glyph-1-4" x="475.564453" y="582.273438"/>
<use xlink:href="#glyph-1-19" x="478.43168" y="582.273438"/>
<use xlink:href="#glyph-1-8" x="484.171172" y="582.273438"/>
<use xlink:href="#glyph-1-1" x="487.607812" y="582.273438"/>
<use xlink:href="#glyph-1-2" x="493.347305" y="582.273438"/>
<use xlink:href="#glyph-1-22" x="499.086797" y="582.273438"/>
<use xlink:href="#glyph-1-14" x="504.826289" y="582.273438"/>
<use xlink:href="#glyph-1-13" x="509.986289" y="582.273438"/>
<use xlink:href="#glyph-1-11" x="512.853516" y="582.273438"/>
</g>
<g fill="rgb(0%, 0%, 0%)" fill-opacity="1">
<use xlink:href="#glyph-1-23" x="448.605469" y="594.65625"/>
<use xlink:href="#glyph-1-9" x="455.488828" y="594.65625"/>
<use xlink:href="#glyph-1-19" x="461.22832" y="594.65625"/>
<use xlink:href="#glyph-1-6" x="466.967812" y="594.65625"/>
<use xlink:href="#glyph-1-8" x="472.707305" y="594.65625"/>
<use xlink:href="#glyph-1-4" x="476.143945" y="594.65625"/>
<use xlink:href="#glyph-1-19" x="479.011172" y="594.65625"/>
<use xlink:href="#glyph-1-8" x="484.750664" y="594.65625"/>
<use xlink:href="#glyph-1-1" x="488.187305" y="594.65625"/>
<use xlink:href="#glyph-1-2" x="493.926797" y="594.65625"/>
<use xlink:href="#glyph-1-22" x="499.666289" y="594.65625"/>
<use xlink:href="#glyph-1-14" x="505.405781" y="594.65625"/>
<use xlink:href="#glyph-1-13" x="510.565781" y="594.65625"/>
<use xlink:href="#glyph-1-11" x="513.433008" y="594.65625"/>
</g>
<g fill="rgb(0%, 0%, 0%)" fill-opacity="1">
<use xlink:href="#glyph-1-23" x="448.605469" y="607.039062"/>
<use xlink:href="#glyph-1-6" x="455.488828" y="607.039062"/>
<use xlink:href="#glyph-1-13" x="461.22832" y="607.039062"/>
<use xlink:href="#glyph-1-8" x="464.095547" y="607.039062"/>
<use xlink:href="#glyph-1-1" x="467.532187" y="607.039062"/>
<use xlink:href="#glyph-1-18" x="473.27168" y="607.039062"/>
<use xlink:href="#glyph-1-6" x="475.564453" y="607.039062"/>
<use xlink:href="#glyph-1-22" x="481.303945" y="607.039062"/>
<use xlink:href="#glyph-1-24" x="487.043437" y="607.039062"/>
<use xlink:href="#glyph-1-4" x="495.640078" y="607.039062"/>
<use xlink:href="#glyph-1-19" x="498.507305" y="607.039062"/>
<use xlink:href="#glyph-1-8" x="504.246797" y="607.039062"/>
<use xlink:href="#glyph-1-1" x="507.683437" y="607.039062"/>
<use xlink:href="#glyph-1-2" x="513.42293" y="607.039062"/>
<use xlink:href="#glyph-1-22" x="519.162422" y="607.039062"/>
<use xlink:href="#glyph-1-14" x="524.901914" y="607.039062"/>
<use xlink:href="#glyph-1-13" x="530.061914" y="607.039062"/>
<use xlink:href="#glyph-1-11" x="532.929141" y="607.039062"/>
</g>
<g fill="rgb(0%, 0%, 0%)" fill-opacity="1">
<use xlink:href="#glyph-1-25" x="607.324219" y="557.503906"/>
<use xlink:href="#glyph-1-20" x="614.776992" y="557.503906"/>
<use xlink:href="#glyph-1-6" x="620.516484" y="557.503906"/>
<use xlink:href="#glyph-1-24" x="626.255977" y="557.503906"/>
<use xlink:href="#glyph-1-17" x="634.852617" y="557.503906"/>
<use xlink:href="#glyph-1-14" x="637.145391" y="557.503906"/>
<use xlink:href="#glyph-1-9" x="642.305391" y="557.503906"/>
<use xlink:href="#glyph-1-18" x="648.044883" y="557.503906"/>
<use xlink:href="#glyph-1-11" x="650.337656" y="557.503906"/>
</g>
<g fill="rgb(0%, 0%, 0%)" fill-opacity="1">
<use xlink:href="#glyph-1-23" x="607.324219" y="569.890625"/>
<use xlink:href="#glyph-1-20" x="614.207578" y="569.890625"/>
<use xlink:href="#glyph-1-9" x="619.94707" y="569.890625"/>
<use xlink:href="#glyph-1-8" x="625.686563" y="569.890625"/>
<use xlink:href="#glyph-1-24" x="629.123203" y="569.890625"/>
<use xlink:href="#glyph-1-9" x="637.719844" y="569.890625"/>
<use xlink:href="#glyph-1-14" x="643.459336" y="569.890625"/>
<use xlink:href="#glyph-1-6" x="648.619336" y="569.890625"/>
<use xlink:href="#glyph-1-22" x="654.358828" y="569.890625"/>
<use xlink:href="#glyph-1-13" x="660.09832" y="569.890625"/>
<use xlink:href="#glyph-1-17" x="662.965547" y="569.890625"/>
<use xlink:href="#glyph-1-14" x="665.25832" y="569.890625"/>
<use xlink:href="#glyph-1-9" x="670.41832" y="569.890625"/>
<use xlink:href="#glyph-1-18" x="676.157812" y="569.890625"/>
<use xlink:href="#glyph-1-11" x="678.450586" y="569.890625"/>
</g>
<g fill="rgb(0%, 0%, 0%)" fill-opacity="1">
<use xlink:href="#glyph-1-26" x="607.324219" y="582.273438"/>
<use xlink:href="#glyph-1-22" x="614.776992" y="582.273438"/>
<use xlink:href="#glyph-1-5" x="620.516484" y="582.273438"/>
<use xlink:href="#glyph-1-5" x="626.255977" y="582.273438"/>
<use xlink:href="#glyph-1-6" x="631.995469" y="582.273438"/>
<use xlink:href="#glyph-1-8" x="637.734961" y="582.273438"/>
<use xlink:href="#glyph-1-4" x="641.171602" y="582.273438"/>
<use xlink:href="#glyph-1-12" x="644.038828" y="582.273438"/>
<use xlink:href="#glyph-1-4" x="650.922188" y="582.273438"/>
<use xlink:href="#glyph-1-19" x="653.789414" y="582.273438"/>
<use xlink:href="#glyph-1-18" x="659.528906" y="582.273438"/>
<use xlink:href="#glyph-1-9" x="661.82168" y="582.273438"/>
<use xlink:href="#glyph-1-11" x="667.561172" y="582.273438"/>
<use xlink:href="#glyph-1-13" x="672.721172" y="582.273438"/>
<use xlink:href="#glyph-1-17" x="675.588398" y="582.273438"/>
<use xlink:href="#glyph-1-14" x="677.881172" y="582.273438"/>
<use xlink:href="#glyph-1-11" x="683.041172" y="582.273438"/>
</g>
<g fill="rgb(0%, 0%, 0%)" fill-opacity="1">
<use xlink:href="#glyph-1-27" x="607.324219" y="594.65625"/>
<use xlink:href="#glyph-1-1" x="614.776992" y="594.65625"/>
<use xlink:href="#glyph-1-28" x="620.516484" y="594.65625"/>
<use xlink:href="#glyph-1-29" x="626.255977" y="594.65625"/>
<use xlink:href="#glyph-1-24" x="629.692617" y="594.65625"/>
<use xlink:href="#glyph-1-6" x="638.289258" y="594.65625"/>
<use xlink:href="#glyph-1-13" x="644.02875" y="594.65625"/>
<use xlink:href="#glyph-1-9" x="646.895977" y="594.65625"/>
<use xlink:href="#glyph-1-18" x="652.635469" y="594.65625"/>
<use xlink:href="#glyph-1-18" x="654.928242" y="594.65625"/>
<use xlink:href="#glyph-1-17" x="657.221016" y="594.65625"/>
<use xlink:href="#glyph-1-14" x="659.513789" y="594.65625"/>
<use xlink:href="#glyph-1-4" x="664.673789" y="594.65625"/>
<use xlink:href="#glyph-1-24" x="667.541016" y="594.65625"/>
<use xlink:href="#glyph-1-17" x="676.137656" y="594.65625"/>
<use xlink:href="#glyph-1-28" x="678.43043" y="594.65625"/>
<use xlink:href="#glyph-1-6" x="684.169922" y="594.65625"/>
<use xlink:href="#glyph-1-8" x="689.909414" y="594.65625"/>
<use xlink:href="#glyph-1-9" x="693.346055" y="594.65625"/>
<use xlink:href="#glyph-1-18" x="699.085547" y="594.65625"/>
<use xlink:href="#glyph-1-11" x="701.37832" y="594.65625"/>
</g>
</svg>
